<svg xmlns="http://www.w3.org/2000/svg" width="1200" height="966" viewBox="0 0 1200 966" role="img" aria-label="Open Source Activity">
<rect width="1200" height="966" rx="24" fill="#f4fbff"/>
<rect x="28" y="24" width="1144" height="918" rx="22" fill="#ffffff" stroke="#c6d8ea"/>
<text x="56" y="76" fill="#172133" font-family="Arial, Helvetica, sans-serif" font-size="34" font-weight="700" text-anchor="start">Open Source Activity</text>
<line x1="56" y1="104" x2="1144" y2="104" stroke="#d4e2f0" stroke-width="1"/>
<line x1="168" y1="132" x2="168" y2="892" stroke="#13b8a6" stroke-width="3" opacity="0.78"/>
<rect x="58" y="154" width="88" height="36" rx="7" fill="#e9fbf7" stroke="#13b8a6"/>
<text x="102" y="179" fill="#059b8d" font-family="Arial, Helvetica, sans-serif" font-size="18" font-weight="600" text-anchor="middle">2026-06</text>
<circle cx="168" cy="174" r="18" fill="#059b8d" opacity="0.12"/>
<circle cx="168" cy="174" r="12" fill="#39d6c2" opacity="0.45"/>
<circle cx="168" cy="174" r="8" fill="#39d6c2"/>
<rect x="196" y="128" width="648" height="126" rx="12" fill="#ffffff" stroke="#c6d8ea"/>
<rect x="870" y="138" width="274" height="106" rx="9" fill="#f7fcff" stroke="#c6d8ea"/>
<text x="216" y="162" fill="#172133" font-family="Arial, Helvetica, sans-serif" font-size="22" font-weight="700" text-anchor="start">bytedance/deer-flow · 74.9k</text>
<circle cx="218" cy="187" r="2.5" fill="#059b8d"/>
<text x="232" y="192" fill="#53627a" font-family="Arial, Helvetica, sans-serif" font-size="16" font-weight="400" text-anchor="start">PR · Merged · feat(guardrails): expose authenticated runtime context in Guardra…</text>
<g class="stats-icon total" stroke="#059b8d" fill="none" stroke-width="2" stroke-linecap="round" stroke-linejoin="round">
<line x1="892" y1="164" x2="892" y2="170" stroke="#059b8d" stroke-width="2" stroke-linecap="round"/>
<line x1="899" y1="159" x2="899" y2="170" stroke="#059b8d" stroke-width="2" stroke-linecap="round"/>
<line x1="906" y1="154" x2="906" y2="170" stroke="#059b8d" stroke-width="2" stroke-linecap="round"/>
<line x1="890" y1="172" x2="911" y2="172" stroke="#059b8d" stroke-width="2" stroke-linecap="round"/>
<circle cx="892" cy="162" r="2" fill="#059b8d" stroke="none"/>
<circle cx="899" cy="157" r="2" fill="#059b8d" stroke="none"/>
<circle cx="906" cy="152" r="2" fill="#059b8d" stroke="none"/>
</g>
<text x="924" y="170" fill="#059b8d" font-family="Arial, Helvetica, sans-serif" font-size="17" font-weight="600" text-anchor="start">Total 2</text>
<line x1="894" y1="182" x2="1126" y2="182" stroke="#d4e2f0" stroke-width="1"/>
<g class="stats-icon type" stroke="#059b8d" fill="none" stroke-width="2" stroke-linecap="round">
<line x1="896" y1="199" x2="896" y2="213" stroke="#059b8d" stroke-width="2" stroke-linecap="round"/>
<line x1="896" y1="206" x2="907" y2="206" stroke="#059b8d" stroke-width="2" stroke-linecap="round"/>
<line x1="907" y1="206" x2="907" y2="213" stroke="#059b8d" stroke-width="2" stroke-linecap="round"/>
<circle cx="896" cy="199" r="3" fill="none" stroke="#059b8d"/>
<circle cx="896" cy="213" r="3" fill="none" stroke="#059b8d"/>
<circle cx="907" cy="213" r="3" fill="none" stroke="#059b8d"/>
</g>
<text x="924" y="214" fill="#172133" font-family="Arial, Helvetica, sans-serif" font-size="16" font-weight="400" text-anchor="start">PR 1 · Issue 1</text>
<g class="stats-icon status" stroke="#059b8d" fill="none" stroke-width="2" stroke-linecap="round">
<rect x="892" y="223" width="20" height="15" rx="4"/>
<line x1="897" y1="229" x2="907" y2="229" stroke="#059b8d" stroke-width="2" stroke-linecap="round"/>
<line x1="897" y1="233" x2="903" y2="233" stroke="#059b8d" stroke-width="2" stroke-linecap="round"/>
<circle cx="897" cy="242" r="1.8" fill="#059b8d" stroke="none"/>
</g>
<text x="924" y="240" fill="#172133" font-family="Arial, Helvetica, sans-serif" font-size="16" font-weight="400" text-anchor="start">Merged 1 · Fixed 1</text>
<rect x="58" y="310" width="88" height="36" rx="7" fill="#e9fbf7" stroke="#13b8a6"/>
<text x="102" y="335" fill="#059b8d" font-family="Arial, Helvetica, sans-serif" font-size="18" font-weight="600" text-anchor="middle">2026-06</text>
<circle cx="168" cy="330" r="18" fill="#059b8d" opacity="0.12"/>
<circle cx="168" cy="330" r="12" fill="#39d6c2" opacity="0.45"/>
<circle cx="168" cy="330" r="8" fill="#39d6c2"/>
<rect x="196" y="284" width="648" height="126" rx="12" fill="#ffffff" stroke="#c6d8ea"/>
<rect x="870" y="294" width="274" height="106" rx="9" fill="#f7fcff" stroke="#c6d8ea"/>
<text x="216" y="318" fill="#172133" font-family="Arial, Helvetica, sans-serif" font-size="22" font-weight="700" text-anchor="start">microsoft/agent-governance-toolkit · 4.5k</text>
<circle cx="218" cy="343" r="2.5" fill="#059b8d"/>
<text x="232" y="348" fill="#53627a" font-family="Arial, Helvetica, sans-serif" font-size="16" font-weight="400" text-anchor="start">PR · Merged · feat(examples): add DeerFlow governed example with AGT policy and…</text>
<circle cx="218" cy="368" r="2.5" fill="#059b8d"/>
<text x="232" y="373" fill="#53627a" font-family="Arial, Helvetica, sans-serif" font-size="16" font-weight="400" text-anchor="start">PR · Merged · fix: record denied MCP example tool calls</text>
<g class="stats-icon total" stroke="#059b8d" fill="none" stroke-width="2" stroke-linecap="round" stroke-linejoin="round">
<line x1="892" y1="320" x2="892" y2="326" stroke="#059b8d" stroke-width="2" stroke-linecap="round"/>
<line x1="899" y1="315" x2="899" y2="326" stroke="#059b8d" stroke-width="2" stroke-linecap="round"/>
<line x1="906" y1="310" x2="906" y2="326" stroke="#059b8d" stroke-width="2" stroke-linecap="round"/>
<line x1="890" y1="328" x2="911" y2="328" stroke="#059b8d" stroke-width="2" stroke-linecap="round"/>
<circle cx="892" cy="318" r="2" fill="#059b8d" stroke="none"/>
<circle cx="899" cy="313" r="2" fill="#059b8d" stroke="none"/>
<circle cx="906" cy="308" r="2" fill="#059b8d" stroke="none"/>
</g>
<text x="924" y="326" fill="#059b8d" font-family="Arial, Helvetica, sans-serif" font-size="17" font-weight="600" text-anchor="start">Total 2</text>
<line x1="894" y1="338" x2="1126" y2="338" stroke="#d4e2f0" stroke-width="1"/>
<g class="stats-icon type" stroke="#059b8d" fill="none" stroke-width="2" stroke-linecap="round">
<line x1="896" y1="355" x2="896" y2="369" stroke="#059b8d" stroke-width="2" stroke-linecap="round"/>
<line x1="896" y1="362" x2="907" y2="362" stroke="#059b8d" stroke-width="2" stroke-linecap="round"/>
<line x1="907" y1="362" x2="907" y2="369" stroke="#059b8d" stroke-width="2" stroke-linecap="round"/>
<circle cx="896" cy="355" r="3" fill="none" stroke="#059b8d"/>
<circle cx="896" cy="369" r="3" fill="none" stroke="#059b8d"/>
<circle cx="907" cy="369" r="3" fill="none" stroke="#059b8d"/>
</g>
<text x="924" y="370" fill="#172133" font-family="Arial, Helvetica, sans-serif" font-size="16" font-weight="400" text-anchor="start">PR 2</text>
<g class="stats-icon status" stroke="#059b8d" fill="none" stroke-width="2" stroke-linecap="round">
<rect x="892" y="379" width="20" height="15" rx="4"/>
<line x1="897" y1="385" x2="907" y2="385" stroke="#059b8d" stroke-width="2" stroke-linecap="round"/>
<line x1="897" y1="389" x2="903" y2="389" stroke="#059b8d" stroke-width="2" stroke-linecap="round"/>
<circle cx="897" cy="398" r="1.8" fill="#059b8d" stroke="none"/>
</g>
<text x="924" y="396" fill="#172133" font-family="Arial, Helvetica, sans-serif" font-size="16" font-weight="400" text-anchor="start">Merged 2</text>
<rect x="58" y="466" width="88" height="36" rx="7" fill="#e9fbf7" stroke="#13b8a6"/>
<text x="102" y="491" fill="#059b8d" font-family="Arial, Helvetica, sans-serif" font-size="18" font-weight="600" text-anchor="middle">2026-06</text>
<circle cx="168" cy="486" r="18" fill="#059b8d" opacity="0.12"/>
<circle cx="168" cy="486" r="12" fill="#39d6c2" opacity="0.45"/>
<circle cx="168" cy="486" r="8" fill="#39d6c2"/>
<rect x="196" y="440" width="648" height="126" rx="12" fill="#ffffff" stroke="#c6d8ea"/>
<rect x="870" y="450" width="274" height="106" rx="9" fill="#f7fcff" stroke="#c6d8ea"/>
<text x="216" y="474" fill="#172133" font-family="Arial, Helvetica, sans-serif" font-size="22" font-weight="700" text-anchor="start">agentrust-io/agent-manifest · 5</text>
<circle cx="218" cy="499" r="2.5" fill="#059b8d"/>
<text x="232" y="504" fill="#53627a" font-family="Arial, Helvetica, sans-serif" font-size="16" font-weight="400" text-anchor="start">Issue · Fixed · [cli] CLI verify cannot validate signed manifests with generated …</text>
<circle cx="218" cy="524" r="2.5" fill="#059b8d"/>
<text x="232" y="529" fill="#53627a" font-family="Arial, Helvetica, sans-serif" font-size="16" font-weight="400" text-anchor="start">PR · Closed · feat(cli): allow CLI verify to accept a trusted public key</text>
<g class="stats-icon total" stroke="#059b8d" fill="none" stroke-width="2" stroke-linecap="round" stroke-linejoin="round">
<line x1="892" y1="476" x2="892" y2="482" stroke="#059b8d" stroke-width="2" stroke-linecap="round"/>
<line x1="899" y1="471" x2="899" y2="482" stroke="#059b8d" stroke-width="2" stroke-linecap="round"/>
<line x1="906" y1="466" x2="906" y2="482" stroke="#059b8d" stroke-width="2" stroke-linecap="round"/>
<line x1="890" y1="484" x2="911" y2="484" stroke="#059b8d" stroke-width="2" stroke-linecap="round"/>
<circle cx="892" cy="474" r="2" fill="#059b8d" stroke="none"/>
<circle cx="899" cy="469" r="2" fill="#059b8d" stroke="none"/>
<circle cx="906" cy="464" r="2" fill="#059b8d" stroke="none"/>
</g>
<text x="924" y="482" fill="#059b8d" font-family="Arial, Helvetica, sans-serif" font-size="17" font-weight="600" text-anchor="start">Total 2</text>
<line x1="894" y1="494" x2="1126" y2="494" stroke="#d4e2f0" stroke-width="1"/>
<g class="stats-icon type" stroke="#059b8d" fill="none" stroke-width="2" stroke-linecap="round">
<line x1="896" y1="511" x2="896" y2="525" stroke="#059b8d" stroke-width="2" stroke-linecap="round"/>
<line x1="896" y1="518" x2="907" y2="518" stroke="#059b8d" stroke-width="2" stroke-linecap="round"/>
<line x1="907" y1="518" x2="907" y2="525" stroke="#059b8d" stroke-width="2" stroke-linecap="round"/>
<circle cx="896" cy="511" r="3" fill="none" stroke="#059b8d"/>
<circle cx="896" cy="525" r="3" fill="none" stroke="#059b8d"/>
<circle cx="907" cy="525" r="3" fill="none" stroke="#059b8d"/>
</g>
<text x="924" y="526" fill="#172133" font-family="Arial, Helvetica, sans-serif" font-size="16" font-weight="400" text-anchor="start">PR 1 · Issue 1</text>
<g class="stats-icon status" stroke="#059b8d" fill="none" stroke-width="2" stroke-linecap="round">
<rect x="892" y="535" width="20" height="15" rx="4"/>
<line x1="897" y1="541" x2="907" y2="541" stroke="#059b8d" stroke-width="2" stroke-linecap="round"/>
<line x1="897" y1="545" x2="903" y2="545" stroke="#059b8d" stroke-width="2" stroke-linecap="round"/>
<circle cx="897" cy="554" r="1.8" fill="#059b8d" stroke="none"/>
</g>
<text x="924" y="552" fill="#172133" font-family="Arial, Helvetica, sans-serif" font-size="16" font-weight="400" text-anchor="start">Fixed 1 · Closed 1</text>
<rect x="58" y="622" width="88" height="36" rx="7" fill="#e9fbf7" stroke="#13b8a6"/>
<text x="102" y="647" fill="#059b8d" font-family="Arial, Helvetica, sans-serif" font-size="18" font-weight="600" text-anchor="middle">2026-05</text>
<circle cx="168" cy="642" r="18" fill="#059b8d" opacity="0.12"/>
<circle cx="168" cy="642" r="12" fill="#39d6c2" opacity="0.45"/>
<circle cx="168" cy="642" r="8" fill="#39d6c2"/>
<rect x="196" y="596" width="648" height="126" rx="12" fill="#ffffff" stroke="#c6d8ea"/>
<rect x="870" y="606" width="274" height="106" rx="9" fill="#f7fcff" stroke="#c6d8ea"/>
<text x="216" y="630" fill="#172133" font-family="Arial, Helvetica, sans-serif" font-size="22" font-weight="700" text-anchor="start">NanmiCoder/MediaCrawler · 53.3k</text>
<circle cx="218" cy="655" r="2.5" fill="#059b8d"/>
<text x="232" y="660" fill="#53627a" font-family="Arial, Helvetica, sans-serif" font-size="16" font-weight="400" text-anchor="start">PR · Merged · fix: 修复知乎 specified_id 和已有 Chrome CDP 连接问题</text>
<g class="stats-icon total" stroke="#059b8d" fill="none" stroke-width="2" stroke-linecap="round" stroke-linejoin="round">
<line x1="892" y1="632" x2="892" y2="638" stroke="#059b8d" stroke-width="2" stroke-linecap="round"/>
<line x1="899" y1="627" x2="899" y2="638" stroke="#059b8d" stroke-width="2" stroke-linecap="round"/>
<line x1="906" y1="622" x2="906" y2="638" stroke="#059b8d" stroke-width="2" stroke-linecap="round"/>
<line x1="890" y1="640" x2="911" y2="640" stroke="#059b8d" stroke-width="2" stroke-linecap="round"/>
<circle cx="892" cy="630" r="2" fill="#059b8d" stroke="none"/>
<circle cx="899" cy="625" r="2" fill="#059b8d" stroke="none"/>
<circle cx="906" cy="620" r="2" fill="#059b8d" stroke="none"/>
</g>
<text x="924" y="638" fill="#059b8d" font-family="Arial, Helvetica, sans-serif" font-size="17" font-weight="600" text-anchor="start">Total 2</text>
<line x1="894" y1="650" x2="1126" y2="650" stroke="#d4e2f0" stroke-width="1"/>
<g class="stats-icon type" stroke="#059b8d" fill="none" stroke-width="2" stroke-linecap="round">
<line x1="896" y1="667" x2="896" y2="681" stroke="#059b8d" stroke-width="2" stroke-linecap="round"/>
<line x1="896" y1="674" x2="907" y2="674" stroke="#059b8d" stroke-width="2" stroke-linecap="round"/>
<line x1="907" y1="674" x2="907" y2="681" stroke="#059b8d" stroke-width="2" stroke-linecap="round"/>
<circle cx="896" cy="667" r="3" fill="none" stroke="#059b8d"/>
<circle cx="896" cy="681" r="3" fill="none" stroke="#059b8d"/>
<circle cx="907" cy="681" r="3" fill="none" stroke="#059b8d"/>
</g>
<text x="924" y="682" fill="#172133" font-family="Arial, Helvetica, sans-serif" font-size="16" font-weight="400" text-anchor="start">PR 1 · Issue 1</text>
<g class="stats-icon status" stroke="#059b8d" fill="none" stroke-width="2" stroke-linecap="round">
<rect x="892" y="691" width="20" height="15" rx="4"/>
<line x1="897" y1="697" x2="907" y2="697" stroke="#059b8d" stroke-width="2" stroke-linecap="round"/>
<line x1="897" y1="701" x2="903" y2="701" stroke="#059b8d" stroke-width="2" stroke-linecap="round"/>
<circle cx="897" cy="710" r="1.8" fill="#059b8d" stroke="none"/>
</g>
<text x="924" y="708" fill="#172133" font-family="Arial, Helvetica, sans-serif" font-size="16" font-weight="400" text-anchor="start">Merged 1 · Fixed 1</text>
<rect x="58" y="778" width="88" height="36" rx="7" fill="#e9fbf7" stroke="#13b8a6"/>
<text x="102" y="803" fill="#059b8d" font-family="Arial, Helvetica, sans-serif" font-size="18" font-weight="600" text-anchor="middle">2025-01</text>
<circle cx="168" cy="798" r="18" fill="#059b8d" opacity="0.12"/>
<circle cx="168" cy="798" r="12" fill="#39d6c2" opacity="0.45"/>
<circle cx="168" cy="798" r="8" fill="#39d6c2"/>
<rect x="196" y="752" width="648" height="126" rx="12" fill="#ffffff" stroke="#c6d8ea"/>
<rect x="870" y="762" width="274" height="106" rx="9" fill="#f7fcff" stroke="#c6d8ea"/>
<text x="216" y="786" fill="#172133" font-family="Arial, Helvetica, sans-serif" font-size="22" font-weight="700" text-anchor="start">oshi/oshi · 5.2k</text>
<circle cx="218" cy="811" r="2.5" fill="#059b8d"/>
<text x="232" y="816" fill="#53627a" font-family="Arial, Helvetica, sans-serif" font-size="16" font-weight="400" text-anchor="start">Issue · Fixed · Memory speed unit &quot;MT/s&quot; not support parse</text>
<g class="stats-icon total" stroke="#059b8d" fill="none" stroke-width="2" stroke-linecap="round" stroke-linejoin="round">
<line x1="892" y1="788" x2="892" y2="794" stroke="#059b8d" stroke-width="2" stroke-linecap="round"/>
<line x1="899" y1="783" x2="899" y2="794" stroke="#059b8d" stroke-width="2" stroke-linecap="round"/>
<line x1="906" y1="778" x2="906" y2="794" stroke="#059b8d" stroke-width="2" stroke-linecap="round"/>
<line x1="890" y1="796" x2="911" y2="796" stroke="#059b8d" stroke-width="2" stroke-linecap="round"/>
<circle cx="892" cy="786" r="2" fill="#059b8d" stroke="none"/>
<circle cx="899" cy="781" r="2" fill="#059b8d" stroke="none"/>
<circle cx="906" cy="776" r="2" fill="#059b8d" stroke="none"/>
</g>
<text x="924" y="794" fill="#059b8d" font-family="Arial, Helvetica, sans-serif" font-size="17" font-weight="600" text-anchor="start">Total 1</text>
<line x1="894" y1="806" x2="1126" y2="806" stroke="#d4e2f0" stroke-width="1"/>
<g class="stats-icon type" stroke="#059b8d" fill="none" stroke-width="2" stroke-linecap="round">
<line x1="896" y1="823" x2="896" y2="837" stroke="#059b8d" stroke-width="2" stroke-linecap="round"/>
<line x1="896" y1="830" x2="907" y2="830" stroke="#059b8d" stroke-width="2" stroke-linecap="round"/>
<line x1="907" y1="830" x2="907" y2="837" stroke="#059b8d" stroke-width="2" stroke-linecap="round"/>
<circle cx="896" cy="823" r="3" fill="none" stroke="#059b8d"/>
<circle cx="896" cy="837" r="3" fill="none" stroke="#059b8d"/>
<circle cx="907" cy="837" r="3" fill="none" stroke="#059b8d"/>
</g>
<text x="924" y="838" fill="#172133" font-family="Arial, Helvetica, sans-serif" font-size="16" font-weight="400" text-anchor="start">Issue 1</text>
<g class="stats-icon status" stroke="#059b8d" fill="none" stroke-width="2" stroke-linecap="round">
<rect x="892" y="847" width="20" height="15" rx="4"/>
<line x1="897" y1="853" x2="907" y2="853" stroke="#059b8d" stroke-width="2" stroke-linecap="round"/>
<line x1="897" y1="857" x2="903" y2="857" stroke="#059b8d" stroke-width="2" stroke-linecap="round"/>
<circle cx="897" cy="866" r="1.8" fill="#059b8d" stroke="none"/>
</g>
<text x="924" y="864" fill="#172133" font-family="Arial, Helvetica, sans-serif" font-size="16" font-weight="400" text-anchor="start">Fixed 1</text>
</svg>
